# xmcd CD database file
#
# Track frame offsets:
#	150
#	20425
#	42663
#	64939
#	82091
#	101673
#	123789
#	150114
#	166464
#	187768
#
# Disc length: 2783 seconds
#
# Revision: 0
# Processed by: cddbd v1.5.2PL0 Copyright (c) Steve Scherf et al.
# Submitted via: jetAudio 7
#
DISCID=760add0a
DTITLE=張中立 - 陽光·拉丁
DYEAR=1900
DGENRE=장르 없음
TTITLE0=天使之舞
TTITLE1=傍晩的海灘
TTITLE2=傍晩的海灘
TTITLE3=波麗露之夜
TTITLE4=蜻蜓
TTITLE5=童年
TTITLE6=黎明的咖啡館
TTITLE7=中國女孩
TTITLE8=來與我一起享受吧
TTITLE9=懷念的夜
EXTD=
EXTT0=
EXTT1=
EXTT2=
EXTT3=
EXTT4=
EXTT5=
EXTT6=
EXTT7=
EXTT8=
EXTT9=
PLAYORDER=
